<svg width="250mm" height="250mm" viewBox="0 0 250 250" xmlns="http://www.w3.org/2000/svg"><path d="m322.648 480.906-8.949 8.95v.025l8.975-8.975zm16.061 0-25.01 25.01v334.045H231.621l165.229 165.291 165.23-165.291H480V505.916l-25.01-25.01z" transform="matrix(.26458 0 0 .26458 20 -17.605)"/><path d="M58.284 19.238 30 47.522v46.716h16.758l3.175 3.175.067-.066v3.765l-.067-.067-3.192 3.193h-16.74v10h16.757l3.175 3.175.067-.067v3.766l-.067-.067-3.192 3.193H30v10h16.811l3.121 3.12.067-.066v3.766l-.067-.067-3.21 3.21.035.037H30v46.715l28.284 28.285H80v-86.624l8.376-8.376h33.247l8.377 8.376v86.624h21.716L180 190.953v-46.715h-16.825l.036-.036-3.211-3.21v-3.633l3.12-3.121H180v-10h-16.807L160 121.045v-3.633l3.175-3.175H180v-10h-16.808L160 101.047v-3.633l3.175-3.175H180V47.522l-28.284-28.284H130v86.623l-8.376 8.376H88.376L80 105.861V19.238z" transform="translate(20 -17.605)"/></svg>