<svg xmlns="http://www.w3.org/2000/svg">
  <g style="display:inline">
    <path d="m494.936 616.116 347.636 231.757M596.556 746.349l49.662-82.77 66.217 99.324Z" style="font-style:normal;font-variant:normal;font-weight:400;font-stretch:normal;font-size:medium;line-height:normal;font-family:sans-serif;font-variant-ligatures:normal;font-variant-position:normal;font-variant-caps:normal;font-variant-numeric:normal;font-variant-alternates:normal;font-variant-east-asian:normal;font-feature-settings:normal;font-variation-settings:normal;text-indent:0;text-align:start;text-decoration:none;text-decoration-line:none;text-decoration-style:solid;text-decoration-color:#000;letter-spacing:normal;word-spacing:normal;text-transform:none;writing-mode:lr-tb;direction:ltr;text-orientation:mixed;dominant-baseline:auto;baseline-shift:baseline;text-anchor:start;white-space:normal;shape-padding:0;shape-margin:0;inline-size:0;clip-rule:nonzero;display:inline;overflow:visible;visibility:visible;isolation:auto;mix-blend-mode:normal;color-interpolation:sRGB;color-interpolation-filters:linearRGB;solid-color:#000;solid-opacity:1;vector-effect:none;fill-opacity:1;fill-rule:nonzero;stroke:none;stroke-width:33.1082;stroke-linecap:butt;stroke-linejoin:miter;stroke-miterlimit:4;stroke-dasharray:none;stroke-dashoffset:0;stroke-opacity:1;color-rendering:auto;image-rendering:auto;shape-rendering:auto;text-rendering:auto;enable-background:accumulate;stop-color:#000"/>
    <path d="m504.135 602.328-18.397 27.547 115.296 76.853-31.491 52.475 24.67 3.525 115.555 16.521 123.605 82.383 18.397-27.547-129.555-86.36-76.724-115.102-27.418 45.685zm142.811 92.211 3.621 5.4-4.882-3.266zm-18.332 30.586 17.362 11.575-22.374-3.2zM494.936 400.913 842.572 152.6M832.953 139.137 485.318 387.448l19.237 26.933L852.191 166.07Z" style="font-style:normal;font-variant:normal;font-weight:400;font-stretch:normal;font-size:medium;line-height:normal;font-family:sans-serif;font-variant-ligatures:normal;font-variant-position:normal;font-variant-caps:normal;font-variant-numeric:normal;font-variant-alternates:normal;font-variant-east-asian:normal;font-feature-settings:normal;font-variation-settings:normal;text-indent:0;text-align:start;text-decoration:none;text-decoration-line:none;text-decoration-style:solid;text-decoration-color:#000;letter-spacing:normal;word-spacing:normal;text-transform:none;writing-mode:lr-tb;direction:ltr;text-orientation:mixed;dominant-baseline:auto;baseline-shift:baseline;text-anchor:start;white-space:normal;shape-padding:0;shape-margin:0;inline-size:0;clip-rule:nonzero;display:inline;overflow:visible;visibility:visible;isolation:auto;mix-blend-mode:normal;color-interpolation:sRGB;color-interpolation-filters:linearRGB;solid-color:#000;solid-opacity:1;vector-effect:none;fill-opacity:1;fill-rule:nonzero;stroke:none;stroke-width:33.1082;stroke-linecap:butt;stroke-linejoin:miter;stroke-miterlimit:4;stroke-dasharray:none;stroke-dashoffset:0;stroke-opacity:1;color-rendering:auto;image-rendering:auto;shape-rendering:auto;text-rendering:auto;enable-background:accumulate;stop-color:#000"/>
    <path d="M478.382 251.926v496.622h33.108V251.926" style="font-style:normal;font-variant:normal;font-weight:400;font-stretch:normal;font-size:medium;line-height:normal;font-family:sans-serif;font-variant-ligatures:normal;font-variant-position:normal;font-variant-caps:normal;font-variant-numeric:normal;font-variant-alternates:normal;font-variant-east-asian:normal;font-feature-settings:normal;font-variation-settings:normal;text-indent:0;text-align:start;text-decoration:none;text-decoration-line:none;text-decoration-style:solid;text-decoration-color:#000;letter-spacing:normal;word-spacing:normal;text-transform:none;writing-mode:lr-tb;direction:ltr;text-orientation:mixed;dominant-baseline:auto;baseline-shift:baseline;text-anchor:start;white-space:normal;shape-padding:0;shape-margin:0;inline-size:0;clip-rule:nonzero;display:inline;overflow:visible;visibility:visible;isolation:auto;mix-blend-mode:normal;color-interpolation:sRGB;color-interpolation-filters:linearRGB;solid-color:#000;solid-opacity:1;vector-effect:none;fill-opacity:1;fill-rule:nonzero;stroke:none;stroke-width:33.1082;stroke-linecap:butt;stroke-linejoin:miter;stroke-miterlimit:4;stroke-dasharray:none;stroke-dashoffset:0;stroke-opacity:1;color-rendering:auto;image-rendering:auto;shape-rendering:auto;text-rendering:auto;enable-background:accumulate;stop-color:#000"/>
    <path d="M461.844 251.911v513.177h66.217V251.91h-33.109zM33.434 500.237h494.61" style="font-style:normal;font-variant:normal;font-weight:400;font-stretch:normal;font-size:medium;line-height:normal;font-family:sans-serif;font-variant-ligatures:normal;font-variant-position:normal;font-variant-caps:normal;font-variant-numeric:normal;font-variant-alternates:normal;font-variant-east-asian:normal;font-feature-settings:normal;font-variation-settings:normal;text-indent:0;text-align:start;text-decoration:none;text-decoration-line:none;text-decoration-style:solid;text-decoration-color:#000;letter-spacing:normal;word-spacing:normal;text-transform:none;writing-mode:lr-tb;direction:ltr;text-orientation:mixed;dominant-baseline:auto;baseline-shift:baseline;text-anchor:start;white-space:normal;shape-padding:0;shape-margin:0;inline-size:0;clip-rule:nonzero;display:inline;overflow:visible;visibility:visible;isolation:auto;mix-blend-mode:normal;color-interpolation:sRGB;color-interpolation-filters:linearRGB;solid-color:#000;solid-opacity:1;vector-effect:none;fill-opacity:1;fill-rule:nonzero;stroke:none;stroke-width:33.1082;stroke-linecap:butt;stroke-linejoin:miter;stroke-miterlimit:4;stroke-dasharray:none;stroke-dashoffset:0;stroke-opacity:1;color-rendering:auto;image-rendering:auto;shape-rendering:auto;text-rendering:auto;enable-background:accumulate;stop-color:#000"/>
    <path style="font-style:normal;font-variant:normal;font-weight:400;font-stretch:normal;font-size:medium;line-height:normal;font-family:sans-serif;font-variant-ligatures:normal;font-variant-position:normal;font-variant-caps:normal;font-variant-numeric:normal;font-variant-alternates:normal;font-variant-east-asian:normal;font-feature-settings:normal;font-variation-settings:normal;text-indent:0;text-align:start;text-decoration:none;text-decoration-line:none;text-decoration-style:solid;text-decoration-color:#000;letter-spacing:normal;word-spacing:normal;text-transform:none;writing-mode:lr-tb;direction:ltr;text-orientation:mixed;dominant-baseline:auto;baseline-shift:baseline;text-anchor:start;white-space:normal;shape-padding:0;shape-margin:0;inline-size:0;clip-rule:nonzero;display:inline;overflow:visible;visibility:visible;isolation:auto;mix-blend-mode:normal;color-interpolation:sRGB;color-interpolation-filters:linearRGB;solid-color:#000;solid-opacity:1;vector-effect:none;fill-opacity:1;fill-rule:nonzero;stroke:none;stroke-width:33.1082;stroke-linecap:butt;stroke-linejoin:miter;stroke-miterlimit:4;stroke-dasharray:none;stroke-dashoffset:0;stroke-opacity:1;color-rendering:auto;image-rendering:auto;shape-rendering:auto;text-rendering:auto;enable-background:accumulate;stop-color:#000" d="M33.443 483.669v33.108h68.027a130.087 130.087 0 0 1-.938-15.487 130.087 130.087 0 0 1 1.197-17.621zm326.038 0a130.087 130.087 0 0 1 1.196 17.62 130.087 130.087 0 0 1-.905 15.488H528.06v-33.108z"/>
    <path style="font-style:normal;font-variant:normal;font-weight:400;font-stretch:normal;font-size:medium;line-height:normal;font-family:sans-serif;font-variant-ligatures:normal;font-variant-position:normal;font-variant-caps:normal;font-variant-numeric:normal;font-variant-alternates:normal;font-variant-east-asian:normal;font-feature-settings:normal;font-variation-settings:normal;text-indent:0;text-align:start;text-decoration:none;text-decoration-line:none;text-decoration-style:solid;text-decoration-color:#000;letter-spacing:normal;word-spacing:normal;text-transform:none;writing-mode:lr-tb;direction:ltr;text-orientation:mixed;dominant-baseline:auto;baseline-shift:baseline;text-anchor:start;white-space:normal;shape-padding:0;shape-margin:0;inline-size:0;clip-rule:nonzero;display:inline;overflow:visible;visibility:visible;opacity:1;isolation:auto;mix-blend-mode:normal;color-interpolation:sRGB;color-interpolation-filters:linearRGB;solid-color:#000;solid-opacity:1;vector-effect:none;fill-opacity:1;fill-rule:nonzero;stroke:none;stroke-width:57.4228;stroke-linecap:butt;stroke-linejoin:miter;stroke-miterlimit:4;stroke-dasharray:none;stroke-dashoffset:0;stroke-opacity:1;color-rendering:auto;image-rendering:auto;shape-rendering:auto;text-rendering:auto;enable-background:accumulate;stop-color:#000;stop-opacity:1" d="M500.87 8.773C229.44 8.773 8.772 229.44 8.772 500.87c0 271.43 220.667 492.096 492.096 492.096 271.43 0 492.096-220.667 492.096-492.096S772.298 8.773 500.87 8.773Zm0 57.422c240.395 0 434.673 194.279 434.673 434.674 0 240.396-194.278 434.674-434.674 434.674-240.395 0-434.674-194.278-434.674-434.674 0-240.395 194.279-434.674 434.674-434.674z"/>
    <path d="M22.174 31.355a7.145 7.145 0 1 0 1.531 14.122A3.226 3.226 0 0 1 22.4 43.8c-.077.17-.139.34-.226.511a12.03 12.03 0 0 1-.932-2.443h1.113c.092-.318.233-.62.416-.894h-1.724a12.602 12.602 0 0 1-.2-2.028h2.651c-.008.434-.047.882-.103 1.336.284-.235.606-.42.953-.547.019-.266.037-.53.04-.789h1.589c-.012.22-.046.419-.073.625.303.043.598.128.877.254.04-.284.074-.572.088-.879h1.533a6.198 6.198 0 0 1-.42 1.817c.238.3.42.64.54 1.004.505-.98.796-2.09.796-3.268a7.145 7.145 0 0 0-7.144-7.145zm-.86 1.034a16.284 16.284 0 0 0-.921 2.742h-1.301c.765-1.615 1.885-2.502 2.222-2.742zm1.717 0c.338.24 1.46 1.128 2.225 2.742h-1.303c-.285-1.18-.65-2.13-.922-2.742Zm-.857.265c.24.53.584 1.387.863 2.477H21.31c.279-1.09.624-1.947.865-2.477zm-2.647.19a8.44 8.44 0 0 0-1.41 2.287h-1.201a6.283 6.283 0 0 1 2.611-2.287zm5.293 0a6.282 6.282 0 0 1 2.612 2.287h-1.203a8.437 8.437 0 0 0-1.409-2.287Zm-8.384 3.181h1.367a8.87 8.87 0 0 0-.324 2.028h-1.534a6.196 6.196 0 0 1 .49-2.028zm2.304 0h1.463c-.115.632-.2 1.31-.234 2.028H18.37a7.89 7.89 0 0 1 .37-2.028zm2.367 0h2.131c.122.627.213 1.306.248 2.028H20.86c.036-.722.127-1.4.248-2.028zm3.036 0h1.464c.195.6.33 1.274.37 2.028h-1.6a15.263 15.263 0 0 0-.234-2.028zm2.4 0h1.37c.272.63.438 1.312.49 2.028h-1.534a8.865 8.865 0 0 0-.326-2.028zm-10.598 2.922h1.532c.034.742.146 1.418.32 2.028h-1.361a6.194 6.194 0 0 1-.49-2.028zm2.424 0h1.588c.01.655.065 1.332.182 2.028H18.74a7.795 7.795 0 0 1-.37-2.028zm-1.453 2.922h1.195c.393.952.907 1.71 1.393 2.276a6.284 6.284 0 0 1-2.588-2.276zm2.176 0h1.232c.22.91.545 1.838 1.014 2.772-.316-.227-1.467-1.13-2.246-2.772z" style="font-style:normal;font-variant:normal;font-weight:400;font-stretch:normal;font-size:medium;line-height:normal;font-family:sans-serif;font-variant-ligatures:normal;font-variant-position:normal;font-variant-caps:normal;font-variant-numeric:normal;font-variant-alternates:normal;font-variant-east-asian:normal;font-feature-settings:normal;font-variation-settings:normal;text-indent:0;text-align:start;text-decoration:none;text-decoration-line:none;text-decoration-style:solid;text-decoration-color:#000;letter-spacing:normal;word-spacing:normal;text-transform:none;writing-mode:lr-tb;direction:ltr;text-orientation:mixed;dominant-baseline:auto;baseline-shift:baseline;text-anchor:start;white-space:normal;shape-padding:0;shape-margin:0;inline-size:0;clip-rule:nonzero;display:inline;overflow:visible;visibility:visible;isolation:auto;mix-blend-mode:normal;color-interpolation:sRGB;color-interpolation-filters:linearRGB;solid-color:#000;solid-opacity:1;vector-effect:none;fill-opacity:1;fill-rule:nonzero;stroke:none;stroke-width:.029;stroke-linecap:butt;stroke-linejoin:miter;stroke-miterlimit:4;stroke-dasharray:none;stroke-dashoffset:0;stroke-opacity:1;color-rendering:auto;image-rendering:auto;shape-rendering:auto;text-rendering:auto;enable-background:accumulate;stop-color:#000;stop-opacity:1" transform="matrix(16.55408 0 0 16.55408 -136.463 -136.463)"/>
    <path d="M22.174 31.34a7.16 7.16 0 1 0 1.535 14.152l.037-.008-.033-.021a3.21 3.21 0 0 1-1.297-1.668l-.014-.037-.015.037c-.073.16-.133.318-.211.476a12.013 12.013 0 0 1-.91-2.386h1.101l.004-.012c.092-.316.231-.615.414-.889l.016-.025h-1.74a12.59 12.59 0 0 1-.196-1.996h2.615a12.8 12.8 0 0 1-.101 1.318l-.006.04.031-.026c.283-.234.605-.417.95-.543l.01-.004v-.01c.018-.26.036-.52.04-.775h1.555c-.012.212-.045.406-.07.607l-.002.016.015.002c.302.042.596.127.873.252l.02.01.002-.022c.039-.28.071-.564.086-.865h1.5a6.198 6.198 0 0 1-.416 1.795l-.002.008.006.007c.236.299.417.638.535 1l.012.036.017-.034a7.127 7.127 0 0 0 .799-3.275 7.16 7.16 0 0 0-7.16-7.16zm0 .031a7.129 7.129 0 0 1 7.129 7.129 7.08 7.08 0 0 1-.785 3.225 3.238 3.238 0 0 0-.518-.961 6.204 6.204 0 0 0 .418-1.815l.002-.017h-1.566v.015c-.014.3-.048.58-.086.86a3.24 3.24 0 0 0-.846-.246c.026-.202.06-.398.07-.614l.002-.015h-1.62v.015a14.03 14.03 0 0 1-.042.78 3.24 3.24 0 0 0-.92.529c.054-.444.094-.883.102-1.309v-.015h-2.682v.015c.012.655.073 1.333.2 2.03l.001.013h1.713c-.174.267-.31.558-.4.864H21.22l.006.019c.21.805.514 1.625.933 2.447l.014.028.014-.028c.084-.164.144-.328.216-.49.234.67.681 1.242 1.272 1.633a7.118 7.118 0 0 1-1.502.166 7.129 7.129 0 0 1 0-14.258zm-.82.97-.05.034c-.338.241-1.46 1.13-2.226 2.748l-.012.023h1.338l.004-.011c.284-1.176.645-2.12.916-2.733l.004-.007zm1.638 0 .026.054.003.007c.271.613.633 1.557.916 2.733l.004.011h1.34l-.011-.023c-.767-1.618-1.89-2.507-2.229-2.748zm-1.71.1a16.072 16.072 0 0 0-.901 2.674h-1.26c.746-1.555 1.8-2.413 2.16-2.674zm1.782 0c.36.261 1.417 1.119 2.163 2.674h-1.262a16.076 16.076 0 0 0-.9-2.674zm-.89.174-.014.033c-.241.53-.588 1.388-.867 2.479l-.006.02h1.772l-.006-.02a15.095 15.095 0 0 0-.866-2.479Zm0 .084c.238.526.568 1.357.842 2.416H21.33c.273-1.059.606-1.89.844-2.416zm-2.653.131-.005.004-.002.002a6.302 6.302 0 0 0-2.612 2.287l-.015.024h1.24l.006-.01c.398-.96.917-1.72 1.406-2.283zm5.305 0-.017.024a8.423 8.423 0 0 1 1.404 2.283l.006.01h1.242l-.016-.024a6.3 6.3 0 0 0-2.611-2.287l-.002-.002-.006-.004zm-5.363.088a8.33 8.33 0 0 0-1.356 2.197h-1.15a6.256 6.256 0 0 1 2.506-2.197zm5.422 0a6.255 6.255 0 0 1 2.506 2.197h-1.153a8.33 8.33 0 0 0-1.353-2.197Zm-8.46 3.092-.005.01a6.203 6.203 0 0 0-.49 2.03l-.002.018h1.566v-.015a8.85 8.85 0 0 1 .324-2.024l.006-.02zm2.304 0-.004.01a7.922 7.922 0 0 0-.37 2.033l-.002.015h1.631v-.015c.034-.717.12-1.395.235-2.026l.004-.017zm2.365 0-.002.011a14.422 14.422 0 0 0-.248 2.032l-.002.015h2.662l-.002-.015a14.42 14.42 0 0 0-.248-2.032l-.002-.011zm3.029 0 .004.017c.115.63.2 1.309.234 2.026v.015h1.633l-.002-.015a7.922 7.922 0 0 0-.369-2.033l-.004-.01zm2.398 0 .006.02c.175.607.29 1.282.327 2.023v.015h1.566l-.002-.017a6.201 6.201 0 0 0-.49-2.031l-.006-.01zm-10.072.031h1.334a8.887 8.887 0 0 0-.318 1.996h-1.5a6.187 6.187 0 0 1 .484-1.996zm2.305 0h1.432c-.113.622-.197 1.29-.23 1.996h-1.567a7.861 7.861 0 0 1 .365-1.996zm2.367 0h2.104c.119.618.208 1.286.244 1.996h-2.592c.036-.71.125-1.378.244-1.996zm3.04 0h1.433c.191.591.324 1.254.365 1.996h-1.568a15.273 15.273 0 0 0-.23-1.996zm2.401 0h1.336c.268.62.433 1.292.485 1.996h-1.5a8.883 8.883 0 0 0-.32-1.996zm-10.634 2.89.002.018c.05.718.217 1.4.49 2.031l.006.01h1.392l-.005-.02a8.837 8.837 0 0 1-.32-2.023v-.015zm2.424 0 .002.016c.039.754.174 1.432.37 2.033l.005.01h1.43l-.005-.017a13.474 13.474 0 0 1-.181-2.026v-.015zm-2.387.032h1.498c.035.729.144 1.395.314 1.996H16.45a6.186 6.186 0 0 1-.484-1.996zm2.422 0h1.556c.011.645.064 1.311.178 1.996h-1.367a7.767 7.767 0 0 1-.367-1.996zm-1.5 2.89.015.024a6.298 6.298 0 0 0 2.59 2.277l.004.004.02-.023-.004-.004a8.427 8.427 0 0 1-1.385-2.268l-.006-.01zm2.18 0 .011.024c.781 1.644 1.932 2.55 2.25 2.777l.024-.021a12.837 12.837 0 0 1-1.012-2.768l-.004-.011zm-2.11.032h1.145c.377.91.867 1.625 1.336 2.181a6.262 6.262 0 0 1-2.481-2.181zm2.164 0h1.192c.214.886.537 1.792.988 2.7-.344-.25-1.421-1.121-2.18-2.7z" style="font-style:normal;font-variant:normal;font-weight:400;font-stretch:normal;font-size:medium;line-height:normal;font-family:sans-serif;font-variant-ligatures:normal;font-variant-position:normal;font-variant-caps:normal;font-variant-numeric:normal;font-variant-alternates:normal;font-variant-east-asian:normal;font-feature-settings:normal;font-variation-settings:normal;text-indent:0;text-align:start;text-decoration:none;text-decoration-line:none;text-decoration-style:solid;text-decoration-color:#000;letter-spacing:normal;word-spacing:normal;text-transform:none;writing-mode:lr-tb;direction:ltr;text-orientation:mixed;dominant-baseline:auto;baseline-shift:baseline;text-anchor:start;white-space:normal;shape-padding:0;shape-margin:0;inline-size:0;clip-rule:nonzero;display:inline;overflow:visible;visibility:visible;isolation:auto;mix-blend-mode:normal;color-interpolation:sRGB;color-interpolation-filters:linearRGB;solid-color:#000;solid-opacity:1;vector-effect:none;fill-opacity:1;fill-rule:nonzero;stroke:none;stroke-width:.029;stroke-linecap:butt;stroke-linejoin:miter;stroke-miterlimit:4;stroke-dasharray:none;stroke-dashoffset:0;stroke-opacity:1;color-rendering:auto;image-rendering:auto;shape-rendering:auto;text-rendering:auto;enable-background:accumulate;stop-color:#000;stop-opacity:1" transform="matrix(16.55408 0 0 16.55408 -136.463 -136.463)"/>
    <g style="opacity:1">
      <path d="M13.983 0C6.261 0 .001 6.259.001 13.979c0 7.724 6.26 13.984 13.982 13.984 7.722 0 13.98-6.261 13.98-13.984C27.963 6.259 21.705 0 13.983 0Zm0 26.531c-6.933 0-12.55-5.62-12.55-12.553 0-6.93 5.617-12.548 12.55-12.548 6.931 0 12.549 5.618 12.549 12.548-.001 6.933-5.619 12.553-12.549 12.553z" style="font-style:normal;font-variant:normal;font-weight:400;font-stretch:normal;font-size:medium;line-height:normal;font-family:sans-serif;font-variant-ligatures:normal;font-variant-position:normal;font-variant-caps:normal;font-variant-numeric:normal;font-variant-alternates:normal;font-variant-east-asian:normal;font-feature-settings:normal;font-variation-settings:normal;text-indent:0;text-align:start;text-decoration:none;text-decoration-line:none;text-decoration-style:solid;text-decoration-color:#000;letter-spacing:normal;word-spacing:normal;text-transform:none;writing-mode:lr-tb;direction:ltr;text-orientation:mixed;dominant-baseline:auto;baseline-shift:baseline;text-anchor:start;white-space:normal;shape-padding:0;shape-margin:0;inline-size:0;clip-rule:nonzero;display:inline;overflow:visible;visibility:visible;isolation:auto;mix-blend-mode:normal;color-interpolation:sRGB;color-interpolation-filters:linearRGB;solid-color:#000;solid-opacity:1;vector-effect:none;fill-opacity:1;fill-rule:nonzero;stroke:none;stroke-width:1;stroke-linecap:butt;stroke-linejoin:miter;stroke-miterlimit:4;stroke-dasharray:none;stroke-dashoffset:0;stroke-opacity:1;color-rendering:auto;image-rendering:auto;shape-rendering:auto;text-rendering:auto;enable-background:accumulate;stop-color:#000;stop-opacity:1" transform="matrix(3.47552 0 0 3.47552 236.327 523.05)"/>
      <path d="M13.982-.5C5.99-.5-.498 5.988-.498 13.979c0 7.994 6.488 14.484 14.48 14.484 7.993 0 14.48-6.491 14.48-14.484 0-7.99-6.487-14.479-14.48-14.479Zm0 1c7.452 0 13.48 6.029 13.48 13.479 0 7.452-6.028 13.484-13.48 13.484-7.451 0-13.48-6.03-13.48-13.484C.502 6.529 6.531.5 13.982.5Zm0 .43C6.78.93.934 6.778.934 13.979c0 7.203 5.845 13.052 13.048 13.052 7.2 0 13.048-5.85 13.05-13.052 0-7.2-5.848-13.05-13.05-13.05zm0 1c6.661 0 12.05 5.389 12.05 12.049-.002 6.662-5.39 12.052-12.05 12.052-6.662 0-12.048-5.39-12.048-12.052a12.04 12.04 0 0 1 12.048-12.05Z" style="font-style:normal;font-variant:normal;font-weight:400;font-stretch:normal;font-size:medium;line-height:normal;font-family:sans-serif;font-variant-ligatures:normal;font-variant-position:normal;font-variant-caps:normal;font-variant-numeric:normal;font-variant-alternates:normal;font-variant-east-asian:normal;font-feature-settings:normal;font-variation-settings:normal;text-indent:0;text-align:start;text-decoration:none;text-decoration-line:none;text-decoration-style:solid;text-decoration-color:#000;letter-spacing:normal;word-spacing:normal;text-transform:none;writing-mode:lr-tb;direction:ltr;text-orientation:mixed;dominant-baseline:auto;baseline-shift:baseline;text-anchor:start;white-space:normal;shape-padding:0;shape-margin:0;inline-size:0;clip-rule:nonzero;display:inline;overflow:visible;visibility:visible;isolation:auto;mix-blend-mode:normal;color-interpolation:sRGB;color-interpolation-filters:linearRGB;solid-color:#000;solid-opacity:1;vector-effect:none;fill-opacity:1;fill-rule:nonzero;stroke:none;stroke-width:1;stroke-linecap:butt;stroke-linejoin:miter;stroke-miterlimit:4;stroke-dasharray:none;stroke-dashoffset:0;stroke-opacity:1;color-rendering:auto;image-rendering:auto;shape-rendering:auto;text-rendering:auto;enable-background:accumulate;stop-color:#000;stop-opacity:1" transform="matrix(3.47552 0 0 3.47552 236.327 523.05)"/>
    </g>
    <g style="opacity:1">
      <path d="m11.804 4.579.61 12.579h3.165l.612-12.579Z" style="font-style:normal;font-variant:normal;font-weight:400;font-stretch:normal;font-size:medium;line-height:normal;font-family:sans-serif;font-variant-ligatures:normal;font-variant-position:normal;font-variant-caps:normal;font-variant-numeric:normal;font-variant-alternates:normal;font-variant-east-asian:normal;font-feature-settings:normal;font-variation-settings:normal;text-indent:0;text-align:start;text-decoration:none;text-decoration-line:none;text-decoration-style:solid;text-decoration-color:#000;letter-spacing:normal;word-spacing:normal;text-transform:none;writing-mode:lr-tb;direction:ltr;text-orientation:mixed;dominant-baseline:auto;baseline-shift:baseline;text-anchor:start;white-space:normal;shape-padding:0;shape-margin:0;inline-size:0;clip-rule:nonzero;display:inline;overflow:visible;visibility:visible;isolation:auto;mix-blend-mode:normal;color-interpolation:sRGB;color-interpolation-filters:linearRGB;solid-color:#000;solid-opacity:1;vector-effect:none;fill-opacity:1;fill-rule:nonzero;stroke:none;stroke-width:1;stroke-linecap:butt;stroke-linejoin:miter;stroke-miterlimit:4;stroke-dasharray:none;stroke-dashoffset:0;stroke-opacity:1;color-rendering:auto;image-rendering:auto;shape-rendering:auto;text-rendering:auto;enable-background:accumulate;stop-color:#000;stop-opacity:1" transform="matrix(3.47552 0 0 3.47552 236.327 523.05)"/>
      <path d="m11.28 4.078.025.526.632 13.054h4.118l.662-13.58zm1.048 1h3.338l-.562 11.58H12.89z" style="font-style:normal;font-variant:normal;font-weight:400;font-stretch:normal;font-size:medium;line-height:normal;font-family:sans-serif;font-variant-ligatures:normal;font-variant-position:normal;font-variant-caps:normal;font-variant-numeric:normal;font-variant-alternates:normal;font-variant-east-asian:normal;font-feature-settings:normal;font-variation-settings:normal;text-indent:0;text-align:start;text-decoration:none;text-decoration-line:none;text-decoration-style:solid;text-decoration-color:#000;letter-spacing:normal;word-spacing:normal;text-transform:none;writing-mode:lr-tb;direction:ltr;text-orientation:mixed;dominant-baseline:auto;baseline-shift:baseline;text-anchor:start;white-space:normal;shape-padding:0;shape-margin:0;inline-size:0;clip-rule:nonzero;display:inline;overflow:visible;visibility:visible;isolation:auto;mix-blend-mode:normal;color-interpolation:sRGB;color-interpolation-filters:linearRGB;solid-color:#000;solid-opacity:1;vector-effect:none;fill-opacity:1;fill-rule:nonzero;stroke:none;stroke-width:1;stroke-linecap:butt;stroke-linejoin:miter;stroke-miterlimit:4;stroke-dasharray:none;stroke-dashoffset:0;stroke-opacity:1;color-rendering:auto;image-rendering:auto;shape-rendering:auto;text-rendering:auto;enable-background:accumulate;stop-color:#000;stop-opacity:1" transform="matrix(3.47552 0 0 3.47552 236.327 523.05)"/>
    </g>
    <g style="opacity:1">
      <path d="M13.998 18.546c-1.471 0-2.5 1.029-2.5 2.526 0 1.443.999 2.528 2.444 2.528h.056c1.499 0 2.469-1.085 2.469-2.528-.026-1.497-.999-2.526-2.469-2.526z" style="font-style:normal;font-variant:normal;font-weight:400;font-stretch:normal;font-size:medium;line-height:normal;font-family:sans-serif;font-variant-ligatures:normal;font-variant-position:normal;font-variant-caps:normal;font-variant-numeric:normal;font-variant-alternates:normal;font-variant-east-asian:normal;font-feature-settings:normal;font-variation-settings:normal;text-indent:0;text-align:start;text-decoration:none;text-decoration-line:none;text-decoration-style:solid;text-decoration-color:#000;letter-spacing:normal;word-spacing:normal;text-transform:none;writing-mode:lr-tb;direction:ltr;text-orientation:mixed;dominant-baseline:auto;baseline-shift:baseline;text-anchor:start;white-space:normal;shape-padding:0;shape-margin:0;inline-size:0;clip-rule:nonzero;display:inline;overflow:visible;visibility:visible;isolation:auto;mix-blend-mode:normal;color-interpolation:sRGB;color-interpolation-filters:linearRGB;solid-color:#000;solid-opacity:1;vector-effect:none;fill-opacity:1;fill-rule:nonzero;stroke:none;stroke-width:1;stroke-linecap:butt;stroke-linejoin:miter;stroke-miterlimit:4;stroke-dasharray:none;stroke-dashoffset:0;stroke-opacity:1;color-rendering:auto;image-rendering:auto;shape-rendering:auto;text-rendering:auto;enable-background:accumulate;stop-color:#000;stop-opacity:1" transform="matrix(3.47552 0 0 3.47552 236.327 523.05)"/>
      <path d="M13.998 18.047c-1.704 0-3 1.3-3 3.025 0 1.674 1.248 3.028 2.943 3.028h.057c1.74 0 2.969-1.36 2.969-3.028v-.01c-.015-.854-.307-1.617-.834-2.162-.528-.545-1.283-.853-2.135-.853zm0 1c.618 0 1.083.205 1.416.549.332.343.539.84.55 1.48-.001 1.216-.71 2.024-1.966 2.024h-.057c-1.194 0-1.943-.816-1.943-2.028 0-1.268.762-2.025 2-2.025z" style="font-style:normal;font-variant:normal;font-weight:400;font-stretch:normal;font-size:medium;line-height:normal;font-family:sans-serif;font-variant-ligatures:normal;font-variant-position:normal;font-variant-caps:normal;font-variant-numeric:normal;font-variant-alternates:normal;font-variant-east-asian:normal;font-feature-settings:normal;font-variation-settings:normal;text-indent:0;text-align:start;text-decoration:none;text-decoration-line:none;text-decoration-style:solid;text-decoration-color:#000;letter-spacing:normal;word-spacing:normal;text-transform:none;writing-mode:lr-tb;direction:ltr;text-orientation:mixed;dominant-baseline:auto;baseline-shift:baseline;text-anchor:start;white-space:normal;shape-padding:0;shape-margin:0;inline-size:0;clip-rule:nonzero;display:inline;overflow:visible;visibility:visible;isolation:auto;mix-blend-mode:normal;color-interpolation:sRGB;color-interpolation-filters:linearRGB;solid-color:#000;solid-opacity:1;vector-effect:none;fill-opacity:1;fill-rule:nonzero;stroke:none;stroke-width:1;stroke-linecap:butt;stroke-linejoin:miter;stroke-miterlimit:4;stroke-dasharray:none;stroke-dashoffset:0;stroke-opacity:1;color-rendering:auto;image-rendering:auto;shape-rendering:auto;text-rendering:auto;enable-background:accumulate;stop-color:#000;stop-opacity:1" transform="matrix(3.47552 0 0 3.47552 236.327 523.05)"/>
    </g>
    <path style="font-style:normal;font-variant:normal;font-weight:400;font-stretch:normal;font-size:medium;line-height:normal;font-family:sans-serif;font-variant-ligatures:normal;font-variant-position:normal;font-variant-caps:normal;font-variant-numeric:normal;font-variant-alternates:normal;font-variant-east-asian:normal;font-feature-settings:normal;font-variation-settings:normal;text-indent:0;text-align:start;text-decoration:none;text-decoration-line:none;text-decoration-style:solid;text-decoration-color:#000;letter-spacing:normal;word-spacing:normal;text-transform:none;writing-mode:lr-tb;direction:ltr;text-orientation:mixed;dominant-baseline:auto;baseline-shift:baseline;text-anchor:start;white-space:normal;shape-padding:0;shape-margin:0;inline-size:0;clip-rule:nonzero;display:inline;overflow:visible;visibility:visible;opacity:1;isolation:auto;mix-blend-mode:normal;color-interpolation:sRGB;color-interpolation-filters:linearRGB;solid-color:#000;solid-opacity:1;vector-effect:none;fill-opacity:1;fill-rule:nonzero;stroke:none;stroke-width:13.2433;stroke-linecap:butt;stroke-linejoin:miter;stroke-miterlimit:4;stroke-dasharray:none;stroke-dashoffset:0;stroke-opacity:1;color-rendering:auto;image-rendering:auto;shape-rendering:auto;text-rendering:auto;enable-background:accumulate;stop-color:#000;stop-opacity:1" d="M756.81 381.499c-65.78.337-119.025 53.977-118.852 119.726.172 65.746 53.67 119.015 119.435 119.015S876.688 566.97 876.86 501.225c.173-65.75-53.072-119.389-118.853-119.726zm.034 13.224h1.133c58.619.318 105.815 47.88 105.661 106.47-.154 58.596-47.612 105.823-106.244 105.823-58.631 0-106.057-47.227-106.21-105.823-.155-58.59 47.042-106.152 105.66-106.47z"/>
    <path d="M744.46 385.282c-18.449 15.58-31.717 34.593-40.642 55.126-10.283-4.17-20.62-8.29-29.94-14.937l-7.694 10.766c10.823 7.722 22.782 12.704 34.79 17.363-2.956 8.948-5.483 17.984-7.05 27.159a51.527 51.527 0 0 1 14.42-5.27c.105-.442.185-.885.292-1.326a51.527 51.527 0 0 1-2.425-15.487 51.527 51.527 0 0 1 32.138-47.755c3.872-4.37 7.962-8.61 12.448-12.61v9.312a51.527 51.527 0 0 1 6.92-.485 51.527 51.527 0 0 1 6.304.388v-9.214c4.368 3.894 8.371 8.008 12.157 12.253a51.527 51.527 0 0 1 33.076 48.11 51.527 51.527 0 0 1-2.684 16.393 51.527 51.527 0 0 1 14.194 4.947c-1.589-8.908-4.08-17.686-6.951-26.383 12.02-4.66 23.986-9.665 34.821-17.395l-7.695-10.766c-9.319 6.648-19.656 10.767-29.94 14.937-8.923-20.536-22.19-39.544-40.64-55.126l-6.338 7.5v-5.334h-13.224v5.335zm-99.906 108.377v13.256h26.124a51.527 51.527 0 0 1 7.76-13.256zm192.732 0a51.527 51.527 0 0 1 7.598 13.256h25.38V493.66zm-159.624 63.727c-3.921 2.092-7.78 4.313-11.478 6.951l7.695 10.8c4.382-3.127 8.984-5.681 13.709-7.954a51.527 51.527 0 0 1-9.926-9.797zm159.785.162a51.527 51.527 0 0 1-10.12 9.732c4.684 2.267 9.263 4.754 13.612 7.857l7.695-10.8c-3.603-2.57-7.37-4.74-11.187-6.789zm-79.602 1.714a51.527 51.527 0 0 1-7.048 6.887v37.279c-9.1-8.114-16.716-17.128-23.15-26.707a51.527 51.527 0 0 1-9.117.808 51.527 51.527 0 0 1-6.5-.42c8.244 14.45 18.84 27.871 32.43 39.348l6.337-7.501v4.17h13.224v-4.17l6.337 7.5c13.692-11.562 24.36-25.063 32.623-39.638a51.527 51.527 0 0 1-6.046.388 51.527 51.527 0 0 1-9.506-.906c-6.486 9.736-14.179 18.898-23.408 27.127v-38.12a51.527 51.527 0 0 1-6.176-6.046z" style="font-style:normal;font-variant:normal;font-weight:400;font-stretch:normal;font-size:medium;line-height:normal;font-family:sans-serif;font-variant-ligatures:normal;font-variant-position:normal;font-variant-caps:normal;font-variant-numeric:normal;font-variant-alternates:normal;font-variant-east-asian:normal;font-feature-settings:normal;font-variation-settings:normal;text-indent:0;text-align:start;text-decoration:none;text-decoration-line:none;text-decoration-style:solid;text-decoration-color:#000;letter-spacing:normal;word-spacing:normal;text-transform:none;writing-mode:lr-tb;direction:ltr;text-orientation:mixed;dominant-baseline:auto;baseline-shift:baseline;text-anchor:start;white-space:normal;shape-padding:0;shape-margin:0;inline-size:0;clip-rule:nonzero;display:inline;overflow:visible;visibility:visible;opacity:1;isolation:auto;mix-blend-mode:normal;color-interpolation:sRGB;color-interpolation-filters:linearRGB;solid-color:#000;solid-opacity:1;vector-effect:none;fill-opacity:1;fill-rule:nonzero;stroke:none;stroke-width:13.2433;stroke-linecap:butt;stroke-linejoin:miter;stroke-miterlimit:4;stroke-dasharray:none;stroke-dashoffset:0;stroke-opacity:1;color-rendering:auto;image-rendering:auto;shape-rendering:auto;text-rendering:auto;enable-background:accumulate;stop-color:#000;stop-opacity:1"/>
    <path style="fill-opacity:1;stroke:none;stroke-width:2.13269;stroke-linecap:round;stroke-linejoin:bevel;stroke-miterlimit:4;stroke-dasharray:none;stroke-dashoffset:0;stroke-opacity:1" d="M754.92 414.28a44.431 44.431 0 0 0-41.857 44.34 44.431 44.431 0 0 0 35.468 43.468 8.886 8.886 0 0 1-.009-.257 8.886 8.886 0 0 1 7.238-8.725v-6.392a36.307 36.307 0 0 1-34.572-36.22 36.307 36.307 0 0 1 33.732-36.214zm6.199.09a36.307 36.307 0 0 1 32.682 36.124 36.307 36.307 0 0 1-34.744 36.252v6.358a8.886 8.886 0 0 1 7.238 8.727 8.886 8.886 0 0 1-.017.34 44.431 44.431 0 0 0 35.648-43.552 44.431 44.431 0 0 0-40.807-44.25z"/>
    <path style="fill-opacity:1;stroke:none;stroke-width:2.13269;stroke-linecap:round;stroke-linejoin:bevel;stroke-miterlimit:4;stroke-dasharray:none;stroke-dashoffset:0;stroke-opacity:1" d="M721.737 479.587a44.431 44.431 0 0 0-24.312 5.903 44.431 44.431 0 0 0-17.918 57.465 36.307 36.307 0 0 1 14.944-46.366 36.307 36.307 0 0 1 47.236 9.784l6.856-3.958a8.886 8.886 0 0 1-.021-.584 8.886 8.886 0 0 1 4.156-7.518 44.431 44.431 0 0 0-30.942-14.726zm27.686 26.127-5.864 3.385a36.307 36.307 0 0 1 .488.78 36.307 36.307 0 0 1-13.29 49.595 36.307 36.307 0 0 1-48.232-11.11 44.431 44.431 0 0 0 59.331 14.084 44.431 44.431 0 0 0 19.795-52.818 8.886 8.886 0 0 1-4.242 1.088 8.886 8.886 0 0 1-7.986-5.004z"/>
    <path style="fill-opacity:1;stroke:none;stroke-width:2.13269;stroke-linecap:round;stroke-linejoin:bevel;stroke-miterlimit:4;stroke-dasharray:none;stroke-dashoffset:0;stroke-opacity:1" d="M796.21 479.658a44.431 44.431 0 0 0-33.974 14.724 8.886 8.886 0 0 1 4.059 7.45 8.886 8.886 0 0 1-.03.579l6.895 3.98a36.307 36.307 0 0 1 47.191-9.695 36.307 36.307 0 0 1 14.494 47.326 44.431 44.431 0 0 0-17.468-58.425 44.431 44.431 0 0 0-21.167-5.94zm-30.82 26.054a8.886 8.886 0 0 1-7.981 5.006 8.886 8.886 0 0 1-4.25-1.083 44.431 44.431 0 0 0 19.787 52.92 44.431 44.431 0 0 0 58.725-13.215 36.307 36.307 0 0 1-47.626 10.242 36.307 36.307 0 0 1-13.289-49.597 36.307 36.307 0 0 1 .553-.856z"/>
    <path style="fill-opacity:1;stroke:none;stroke-width:2.13269;stroke-linecap:round;stroke-linejoin:bevel;stroke-miterlimit:4;stroke-dasharray:none;stroke-dashoffset:0;stroke-opacity:1" d="M755.98 460.653a40.877 40.877 0 0 0-26.571 9.834 33.768 33.768 0 0 0 8.889 8.773 28.436 28.436 0 0 1 17.681-6.166 28.436 28.436 0 0 1 18.623 6.971 33.768 33.768 0 0 0 9.288-8.357 40.877 40.877 0 0 0-27.91-11.055zm-29.202 12.285a40.877 40.877 0 0 0-10.14 17.51 37.322 37.322 0 0 1 12.056 3.196 28.436 28.436 0 0 1 6.94-11.94 37.322 37.322 0 0 1-8.856-8.766zm59.638 1.371a37.322 37.322 0 0 1-9.233 8.326 28.436 28.436 0 0 1 6.525 12.69 37.322 37.322 0 0 1 11.756-4.108 40.877 40.877 0 0 0-9.048-16.908zm-70.58 19.642a40.877 40.877 0 0 0-.733 7.58 40.877 40.877 0 0 0 29.31 39.176 33.768 33.768 0 0 0 2.609-12.214 28.436 28.436 0 0 1-19.479-26.963 28.436 28.436 0 0 1 .375-4.33 33.768 33.768 0 0 0-12.082-3.249zm80.383.711a33.768 33.768 0 0 0-11.945 4.467 28.436 28.436 0 0 1 .141 2.401 28.436 28.436 0 0 1-16.352 25.707 33.768 33.768 0 0 0-.036.721 33.768 33.768 0 0 0 2.164 11.845 40.877 40.877 0 0 0 26.665-38.273 40.877 40.877 0 0 0-.638-6.868zm-31.713 33.963a28.436 28.436 0 0 1-8.527 1.341 28.436 28.436 0 0 1-5.423-.533 37.322 37.322 0 0 1-2.668 12.122 40.877 40.877 0 0 0 8.091.852 40.877 40.877 0 0 0 10.856-1.513 37.322 37.322 0 0 1-2.329-12.27z"/>
  </g>
</svg>
