<?xml version="1.0" standalone="no"?>
<!DOCTYPE svg PUBLIC "-//W3C//DTD SVG 20010904//EN"
 "http://www.w3.org/TR/2001/REC-SVG-20010904/DTD/svg10.dtd">
<svg version="1.0" xmlns="http://www.w3.org/2000/svg"
 width="1280.000000pt" height="1280.000000pt" viewBox="0 0 1280.000000 1280.000000"
 preserveAspectRatio="xMidYMid meet">
<metadata>
Created by potrace 1.15, written by Peter Selinger 2001-2017
</metadata>
<g transform="translate(0.000000,1280.000000) scale(0.100000,-0.100000)"
fill="#ffffff" stroke="none">
<path d="M1540 12210 c0 -380 3 -580 10 -580 7 0 10 200 10 580 0 380 -3 580
-10 580 -7 0 -10 -200 -10 -580z"/>
<path d="M11240 12210 c0 -380 3 -580 10 -580 7 0 10 200 10 580 0 380 -3 580
-10 580 -7 0 -10 -200 -10 -580z"/>
<path d="M10 11250 c0 -7 200 -10 580 -10 380 0 580 3 580 10 0 7 -200 10
-580 10 -380 0 -580 -3 -580 -10z"/>
<path d="M11630 11250 c0 -7 200 -10 580 -10 380 0 580 3 580 10 0 7 -200 10
-580 10 -380 0 -580 -3 -580 -10z"/>
<path d="M5930 10420 c-417 -78 -773 -242 -1099 -505 -609 -490 -948 -1254
-901 -2030 13 -213 34 -339 88 -532 l28 -100 -130 -35 c-957 -259 -1642 -1030
-1793 -2018 -21 -142 -24 -522 -5 -645 36 -228 82 -408 143 -567 l30 -76 136
78 c75 44 140 83 145 88 5 5 -2 50 -16 105 -45 172 -59 304 -53 487 9 273 63
484 180 715 476 933 1656 1218 2511 606 105 -75 238 -201 316 -300 l63 -80 41
24 c23 13 95 55 161 93 l120 70 -3 65 c-11 195 99 389 271 477 l67 35 0 188
c0 103 -3 187 -6 187 -3 0 -38 5 -77 11 -629 94 -1154 539 -1358 1149 -60 180
-82 321 -82 530 1 211 22 349 84 532 88 262 215 465 413 664 225 224 498 381
784 449 l72 17 0 169 c0 155 -1 169 -17 168 -10 0 -61 -9 -113 -19z"/>
<path d="M6740 10271 l0 -169 73 -17 c461 -111 886 -453 1106 -894 65 -128
127 -316 153 -459 29 -165 29 -420 -1 -586 -41 -227 -135 -460 -267 -656 -228
-341 -589 -596 -980 -694 -80 -20 -221 -46 -248 -46 -3 0 -6 -84 -6 -187 l0
-188 67 -35 c172 -88 282 -282 271 -477 l-3 -65 120 -70 c66 -38 138 -80 161
-93 l41 -24 63 80 c78 99 211 225 316 300 449 321 1010 408 1534 238 539 -175
974 -643 1108 -1194 41 -168 47 -218 47 -420 0 -208 -10 -287 -56 -454 -13
-45 -17 -77 -11 -83 5 -5 70 -44 145 -88 l136 -78 30 76 c184 481 210 1032 70
1528 -235 836 -880 1473 -1724 1701 l-131 36 33 121 c113 410 117 835 13 1246
-236 933 -1000 1640 -1954 1805 -49 8 -93 15 -97 15 -5 0 -9 -76 -9 -169z"/>
<path d="M6200 8259 c-329 -30 -649 -125 -916 -271 l-72 -39 169 -292 169
-292 108 52 c168 82 337 132 532 159 177 23 396 14 575 -26 104 -22 274 -83
377 -133 l108 -52 169 292 169 292 -72 39 c-385 210 -879 312 -1316 271z"/>
<path d="M4025 5848 c2 -24 7 -88 10 -144 14 -273 97 -577 235 -859 184 -377
473 -705 829 -940 55 -36 103 -65 108 -65 7 0 329 548 341 579 1 4 -16 17 -38
30 -180 101 -398 315 -532 521 -166 255 -244 497 -274 853 l-6 67 -339 0 -339
0 5 -42z"/>
<path d="M8096 5823 c-12 -144 -29 -252 -53 -348 -102 -412 -372 -785 -728
-1010 -33 -21 -61 -39 -63 -40 -3 -3 324 -574 334 -584 5 -5 113 61 199 122
414 297 726 729 880 1217 56 177 92 366 100 524 3 56 8 120 10 144 l5 42 -339
0 -339 0 -6 -67z"/>
<path d="M5899 5408 l-157 -91 28 -66 c125 -304 154 -676 78 -1006 -72 -315
-227 -596 -452 -820 -146 -145 -268 -234 -441 -320 -156 -77 -277 -119 -439
-150 -374 -72 -732 -22 -1081 151 -156 77 -284 167 -416 292 l-99 94 -142 -83
c-79 -45 -144 -83 -146 -84 -7 -6 172 -206 263 -293 639 -610 1576 -828 2411
-561 380 122 686 305 972 583 l122 119 123 -119 c285 -278 591 -461 971 -583
315 -101 676 -135 1010 -96 526 62 1020 294 1401 657 91 87 270 287 263 293
-2 1 -67 39 -146 84 l-142 83 -99 -94 c-234 -223 -523 -375 -830 -438 -298
-61 -600 -44 -882 49 -130 43 -335 148 -449 228 -143 102 -320 284 -412 423
-216 326 -309 651 -295 1029 8 209 45 386 117 562 l28 66 -161 93 c-157 91
-162 92 -187 77 -120 -75 -197 -100 -310 -100 -112 0 -222 35 -299 94 -13 11
-29 19 -35 19 -6 -1 -81 -42 -167 -92z"/>
<path d="M10 1550 c0 -7 200 -10 580 -10 380 0 580 3 580 10 0 7 -200 10 -580
10 -380 0 -580 -3 -580 -10z"/>
<path d="M11630 1550 c0 -7 200 -10 580 -10 380 0 580 3 580 10 0 7 -200 10
-580 10 -380 0 -580 -3 -580 -10z"/>
<path d="M1540 590 c0 -380 3 -580 10 -580 7 0 10 200 10 580 0 380 -3 580
-10 580 -7 0 -10 -200 -10 -580z"/>
<path d="M11240 590 c0 -380 3 -580 10 -580 7 0 10 200 10 580 0 380 -3 580
-10 580 -7 0 -10 -200 -10 -580z"/>
</g>
</svg>
