<svg width="250mm" height="250mm" viewBox="0 0 250 250" xmlns="http://www.w3.org/2000/svg"><path class="arrow-down" d="m418.986 459.713-18.357 18.36v306.679h-82.092l153.902 153.96 153.905-153.96h-82.092V478.09l-18.377-18.377H418.986z" transform="scale(.26458)"/><path class="letter-h" d="M78.284 1.632 50 29.916v46.716h16.758l3.175 3.176.067-.067v3.766l-.067-.067-3.192 3.192h-16.74v10h16.757l3.175 3.176.067-.067v3.766l-.067-.067-3.192 3.193H50v10h16.811l3.121 3.12.067-.066v3.766l-.067-.067-3.21 3.21.035.036H50v46.716l28.284 28.284H100V124.01l8.376-8.377h33.247L150 124.01v77.623h21.716L200 173.348v-46.716h-16.825l.036-.035-3.211-3.21v-3.634l3.12-3.12H200v-10h-16.807L180 103.44v-3.633l3.175-3.175H200v-10h-16.808L180 83.44v-3.633l3.175-3.175H200V29.916L171.716 1.632H150v77.624l-8.376 8.376h-33.248L100 79.256V1.632z"/></svg>